<?xml version="1.0" encoding="UTF-8"?>
<svg id="Ebene_1" data-name="Ebene 1" xmlns="http://www.w3.org/2000/svg" viewBox="0 0 328.92 285.14">
  <defs>
    <style>
      .cls-1, .cls-2 {
        stroke: #020202;
        stroke-width: .05px;
      }

      .cls-1, .cls-2, .cls-3 {
        stroke-miterlimit: 10;
      }

      .cls-1, .cls-3 {
        fill: none;
      }

      .cls-2 {
        fill: #fff;
      }

      .cls-3 {
        stroke: #1d1d1b;
        stroke-width: .02px;
      }
    </style>
  </defs>
  <g>
    <polygon class="cls-2" points="154.77 173.89 154.77 174.5 154.41 174.5 154.77 173.89"/>
    <path class="cls-1" d="m150.1,216.01h5.48v16.89h-18.02v-16.89h4.84c.18-1.16.72-2.89,1.25-5.88.91-5.08.37-5.81,1.51-8.45.45-1.04.49-.83,3.1-4.92,1.58-2.48,2.84-4.45,4.31-7.01,1.95-3.43,1.85-3.68,3.33-6,2.11-3.3,1.77-3.04,2.13-3.53.39-.53.77-.98,1.09-1.76.04-.1.22-.55.36-1.19.13-.58.17-1.08.19-1.46-.07-7.71-.14-15.43-.21-23.14h2.78v21.83c-.31,2.8-.83,4.96-1.16,6.22-2.25,8.42-8.83,22.48-8.8,24.79,0,.06.01.52-.01,1.14-.02.54-.07,1.24-.18,2.03-.23,1.66-.67,3.15-1.31,5.34-.23.79-.45,1.45-.68,1.99Z"/>
    <path class="cls-1" d="m191.59,216.01v17.44h-18.02v-17.44h4.14c-.21-.59-.42-1.29-.64-2.16-.58-2.25-.97-3.79-1.18-5.5-.2-1.66-.17-2.88-.17-3.31,0-2.25-.67-6.78-3.61-16.79-1.42-2.48-2.41-4.69-3.09-6.39-1.58-3.95-1.83-6.06-1.91-6.78-.11-1.13-.11-2.07-.09-2.72v-19.69h2.78v21.83c.12.44.24.87.36,1.31.22,1.18.33,1.54.34,1.55h0c1.05,3.16,3.98,9.31,3.98,9.31.54,1.14.81,1.71.99,2.06,1.31,2.65,2.44,4.69,3.86,7.25,2.35,4.24,2.38,4.02,2.78,5.09,1.02,2.74.54,3.49,1.35,8.75.5,3.19,1,4.99,1.15,6.19h6.99Z"/>
  </g>
  <path class="cls-1" d="m246.43.03L82,.31.03,142.86l82.46,142.26,164.43-.28,81.97-142.55L246.43.03Zm19.85,144.37l-5.4,16.59-7.56-2.46-6.25,10.56,5.34,3.15-8.87,15.02-14.86-8.77c-4.41.21-13.05,1.28-21.11,7.29-2.57,1.91-4.58,3.96-6.14,5.84,1.58,2.01,3.16,4.03,4.74,6.04,1.26.8,2.38,1.82,3.31,2.99l7.87,9.89c.49.61.75,1.38.75,2.16v1.31h11.5v17.44h-18.02v-17.44h2.47l-.16-.84c-.21-1.11-.68-2.15-1.36-3.06l-4-5.31-2.74-3.54c-.91-1.17-2.01-2.17-3.26-2.97l-14.4-9.22-8.13-7.31c-.48-.54-1.02-1.11-1.61-1.68-1.01-.97-2-1.78-2.92-2.45-.32-1.04-.65-2.09-.97-3.13v-21.83h2.78c-.49,2.29-2.95,14.75,4.9,24.97,2.81,3.66,6.09,5.92,8.59,7.29,1.57.92,3.13,1.83,4.69,2.74,2.59-.94,5.19-1.87,7.78-2.81.94-.76,2.05-1.41,3.32-1.93l15.97-6.63,7.4-3.97c1-.54,1.88-1.17,2.6-1.86l4.36-7.4,7.27,4.3,5.87-9.91-6.28-2.05,5.4-16.59,6.63,2.16,1.3-7.52-7.36-.1.24-18.02,5.91.08-1.72-8.28-4.33,2.92-9.76-14.47,14.94-10.08,9.76,14.47-7.32,4.94,2.18,10.55,7.79.1-.24,18.02-6.67-.09-1.48,8.54,7.26,2.36Z"/>
  <g>
    <path class="cls-1" d="m154.67,113.55v21.83h-2.78v-21.83l-3.18-4.97c-.74-1.16-1.66-2.21-2.73-3.09l-7.4-6.12-15.97-10.24c-1.26-.81-2.38-1.82-3.31-2.99l-7.87-9.89c-.49-.62-.76-1.38-.76-2.17v-1.96h-7.99v-16.89h18.02v16.89h-6.11l.29,1.49c.22,1.11.69,2.16,1.37,3.06l4,5.31,2.74,3.54c.91,1.17,2.01,2.18,3.26,2.98l14.4,9.22,8.13,7.3c1.16,1.04,2.15,2.25,2.95,3.59l2.87,4.83s-.01.11-.06.11h.13Z"/>
    <path class="cls-1" d="m162.14,113.55v21.83h-2.78v-20.96c-.13-.2-.18-.27-.18-.28.01,0,.11.09.18.09v-.68c-.21-.87-.02-2.17-.58-4.3-.05-.17-.07-.26-.09-.29,0,.15.27,1.61-1.27-3.47-.8-2.65-1.57-2.5-3.77-5.83-1.64-2.48-3.02-4.38-4.75-6.76-2.86-3.93-4.42-8.16-5.95-13.33-1.41-4.74-2.38-6.3-2.12-7.55h-2.25v-16.9h18.02v16.9h-10.38c.46,1.29,1.16,3.12,1.97,5.21,2.33,6.04,5.57,14.35,6.86,18.78,1.09,3.73,4.08,6.65,4.82,10.31.91,4.5,1.68,6.26,2.27,7.23Z"/>
    <path class="cls-2" d="m169.7,113.55v.65c-.06-.2-.15-.41-.22-.65h.22Z"/>
    <path class="cls-1" d="m228.63,55.12v17.45h-10.57l-2.61,4.39c-.8,1.34-1.8,2.55-2.96,3.59l-8.13,7.3-14.39,9.22c-.54.44-1.12.9-1.76,1.35-.68.49-1.34.91-1.97,1.29-.95,1.13-1.91,2.26-2.86,3.38-1.11,1.35-2.21,2.69-3.32,4.04-.5.37-1.27,1.04-1.9,2.1-.51.86-.75,1.67-.86,2.23-.04.7-.09,1.39-.13,2.09v21.83h-2.78v-23.89c0-.79.27-1.55.76-2.17l7.87-9.89c.93-1.17,2.05-2.18,3.31-2.99l15.97-10.24,7.4-6.12c1.06-.88,1.99-1.93,2.73-3.09l2.82-4.42h-4.64v-17.45h18.02Z"/>
  </g>
  <path class="cls-3" d="m154.77,152.67l-.36,21.83c-.73,1.22-1.46,2.45-2.19,3.67-.42.7-.97,1.5-1.68,2.31-.43.49-.86.91-1.27,1.28l-8.13,7.31c-4.54,3.22-9.08,6.45-13.62,9.67-.62.37-1.34.85-2.08,1.48-.72.61-1.29,1.21-1.75,1.75-.98.94-1.97,1.89-2.95,2.83l-1.06,1.41v8.8h-18.02v-16.9h18.02v2.68l.11-.14c.5-.5,1.01-1.04,1.53-1.63.61-.7,1.15-1.38,1.63-2.02,5.16-3.32,10.31-6.64,15.47-9.95,2.17-1.91,4.35-3.81,6.52-5.72.7-.57,1.51-1.35,2.29-2.35.43-.56.79-1.11,1.08-1.61.54-1.26,1.08-2.51,1.61-3.77.69-6.97,1.38-13.95,2.08-20.92h2.78Z"/>
  <path class="cls-3" d="m260.5,133.5l-1.48,8.54,7.26,2.36-5.4,16.59-7.56-2.46-6.25,10.56,5.34,3.15-8.87,15.02-14.86-8.77c-4.41.21-13.05,1.28-21.11,7.29-2.57,1.91-4.58,3.96-6.14,5.84,1.58,2.01,3.16,4.03,4.74,6.04,1.26.8,2.38,1.82,3.31,2.99l7.87,9.89c.49.61.75,1.38.75,2.16v1.31h11.5v17.44h-18.02v-17.44h2.47l-.16-.84c-.21-1.11-.68-2.15-1.36-3.06l-4-5.31-2.74-3.54c-.91-1.17-2.01-2.17-3.26-2.97l-14.4-9.22-8.13-7.31c-.48-.54-1.02-1.11-1.61-1.68-1.01-.97-2-1.78-2.92-2.45-.32-1.04-.65-2.09-.97-3.13v-21.83h2.78c-.49,2.29-2.95,14.75,4.9,24.97,2.81,3.66,6.09,5.92,8.59,7.29,1.57.92,3.13,1.83,4.69,2.74,2.59-.94,5.19-1.87,7.78-2.81.94-.76,2.05-1.41,3.32-1.93l15.97-6.63,7.4-3.97c1-.54,1.88-1.17,2.6-1.86l4.36-7.4,7.27,4.3,5.87-9.91-6.28-2.05,5.4-16.59,6.63,2.16,1.3-7.52-7.36-.1.24-18.02,5.91.08-1.72-8.28-4.33,2.92-9.76-14.47,14.94-10.08,9.76,14.47-7.32,4.94,2.18,10.55,7.79.1-.24,18.02-6.67-.09Z"/>
  <path class="cls-1" d="m174.59,70.49v-15.37h18.02v17.45h-11.94c-.1,1.15-.29,2.75-.37,5.09-.18,5.16-.67,9.46-2.68,13.88-1.22,2.68-2.19,4.81-3.27,7.55-1.45,3.67-1.32,3.9-2.46,6.41-.57,1.25-1.02,2.55-1.61,3.79-.83,1.77-1.05,2.27-1.02,3.13.02.46.11.82.22,1.13.07.24.16.45.22.65v21.18h-2.78v-19.83c-.19-.42-.17-1.05,0-1.84v-.16h.04c.39-1.69,1.42-4.04,2.46-6.57,1.55-3.78,1.37-6.08,2.31-10.8l1.62-10.28,1.24-15.41Z"/>
  <path class="cls-1" d="m169.7,115.06v-.86c.08.28.11.54,0,.86Z"/>
  <path class="cls-1" d="m162.14,115.11v-1.56c.08.14.16,1.06,0,1.56Z"/>
</svg>